HIERARCHY
ROOT hip
{
	OFFSET 0.000000 0.000000 0.000000 
	CHANNELS 6 Xposition Yposition Zposition Xrotation Zrotation Yrotation
	JOINT abdomen
	{
		OFFSET 0.000000 3.402643 0.000000 
		CHANNELS 3 Xrotation Zrotation Yrotation
		JOINT chest
		{
			OFFSET 0.000000 8.438565 -0.680529 
			CHANNELS 3 Xrotation Zrotation Yrotation
			JOINT neck
			{
				OFFSET 0.000000 10.207942 -0.272212 
				CHANNELS 3 Xrotation Zrotation Yrotation
				JOINT head
				{
					OFFSET 0.000000 3.130431 0.000000 
					CHANNELS 3 Xrotation Zrotation Yrotation
					End Site
					{
						OFFSET 0.000000 3.130435 0.000000 
					}
				}
			}
			JOINT lCollar
			{
				OFFSET 3.470700 6.669187 -0.816635 
				CHANNELS 3 Yrotation Zrotation Xrotation
				JOINT lShldr
				{
					OFFSET 3.198488 0.000000 0.000000 
					CHANNELS 3 Zrotation Yrotation Xrotation
					JOINT lForeArm
					{
						OFFSET 10.139888 0.000000 0.000000 
						CHANNELS 3 Yrotation Zrotation Xrotation
						JOINT lHand
						{
							OFFSET 8.370511 0.000000 0.000000 
							CHANNELS 3 Zrotation Yrotation Xrotation
							End Site
							{
								OFFSET 4.083176 0.000000 0.000000 
							}
						}
					}
				}
			}
			JOINT rCollar
			{
				OFFSET -3.470700 6.669187 -0.816635 
				CHANNELS 3 Yrotation Zrotation Xrotation
				JOINT rShldr
				{
					OFFSET -3.198488 0.000000 0.000000 
					CHANNELS 3 Zrotation Yrotation Xrotation
					JOINT rForeArm
					{
						OFFSET -10.139888 0.000000 0.000000 
						CHANNELS 3 Yrotation Zrotation Xrotation
						JOINT rHand
						{
							OFFSET -8.370511 0.000000 0.000000 
							CHANNELS 3 Zrotation Yrotation Xrotation
							End Site
							{
								OFFSET -4.083176 0.000000 0.000000 
							}
						}
					}
				}
			}
		}
	}
	JOINT lThigh
	{
		OFFSET 5.308129 -1.633274 1.361059 
		CHANNELS 3 Xrotation Zrotation Yrotation
		JOINT lShin
		{
			OFFSET -2.041588 -20.007561 0.000000 
			CHANNELS 3 Xrotation Zrotation Yrotation
			JOINT lFoot
			{
				OFFSET 0.000000 -19.190928 -1.224953 
				CHANNELS 3 Xrotation Yrotation Zrotation
				End Site
				{
					OFFSET 0.000000 -2.449906 4.627600 
				}
			}
		}
	}
	JOINT rThigh
	{
		OFFSET -5.308129 -1.633274 1.361059 
		CHANNELS 3 Xrotation Zrotation Yrotation
		JOINT rShin
		{
			OFFSET 2.041588 -20.007561 0.000000 
			CHANNELS 3 Xrotation Zrotation Yrotation
			JOINT rFoot
			{
				OFFSET 0.000000 -19.190928 -1.224953 
				CHANNELS 3 Xrotation Yrotation Zrotation
				End Site
				{
					OFFSET 0.000000 -2.449906 4.627600 
				}
			}
		}
	}
}
MOTION
Frames: 11
Frame Time: 0.033333
0.077450 10.408013 0.077450 -0.009737 -0.016898 -30.097658 11.972656 0.000000 -0.019531 32.172749 9.947233 -18.996582 -8.544920 -0.009766 -0.009767 56.392124 -11.725065 -5.965627 1.992188 -2.001953 0.000341 -24.819988 -10.483315 -38.027096 -108.288857 -0.589092 9.160692 15.124993 -7.801774 64.231598 -2.001953 1.992188 0.000000 54.387676 28.760366 40.103588 73.264671 0.488230 8.814535 29.684927 -37.279224 -13.560882 -142.991943 34.178635 -26.083992 129.142136 4.957401 -3.081691 1.770876 18.945797 2.998080 -22.871214 -40.228931 26.960970 115.877571 -4.324107 3.581512 -32.938057 30.831631 49.696404 
0.077450 10.340918 0.077450 -0.009751 -0.016906 -30.048830 11.972656 0.000000 -0.019531 32.162983 9.947234 -18.996578 -8.544920 -0.009766 -0.009767 56.382362 -11.725064 -5.965628 1.992188 -2.001953 0.000341 -24.820797 -10.438847 -38.065804 -108.180214 -0.589547 9.158314 15.164865 -7.873696 64.415199 -2.001953 1.992188 0.000000 54.373726 28.761007 40.087803 73.273277 0.498920 8.812884 29.684927 -37.279224 -13.560882 -143.310501 34.041264 -26.163841 129.279327 4.948491 -3.076416 1.917852 18.929621 3.059808 -22.755508 -40.297779 26.978260 115.926491 -4.325218 3.579785 -33.149555 30.828594 49.822697 
0.077450 10.273821 0.077450 -0.009769 -0.016916 -29.990236 11.962891 0.000000 -0.019531 32.162983 9.947234 -18.996578 -8.544920 -0.009766 -0.009767 56.380333 -11.725272 -5.956068 1.992188 -2.001953 0.000341 -24.816143 -10.401296 -38.100243 -108.070107 -0.590308 9.158527 15.213096 -7.941882 64.599693 -2.001953 1.992188 0.000000 54.368328 28.759359 40.092789 73.283379 0.499962 8.811233 29.684927 -37.279224 -13.560882 -143.620758 33.896103 -26.237551 129.426514 4.964970 -3.058053 2.077152 18.890598 3.091131 -22.639694 -40.376740 26.987322 115.975395 -4.315365 3.585445 -33.343243 30.811707 49.938370 
0.077450 10.211192 0.077450 -0.009780 -0.016923 -29.951176 11.962891 0.000000 -0.019531 32.153217 9.947232 -18.996582 -8.544920 -0.009766 -0.009767 56.352695 -11.726099 -5.915844 1.992188 -2.001953 0.000341 -24.802143 -10.385147 -38.095047 -107.885521 -0.584428 9.155437 15.213096 -7.941882 64.599693 -2.001953 1.992188 0.000000 54.371426 28.747416 40.086407 73.305046 0.501744 8.810724 29.684927 -37.279224 -13.560882 -143.880554 33.768463 -26.311758 129.544296 4.974845 -3.043930 2.222713 18.857565 3.136194 -22.466093 -40.466331 26.929932 115.994476 -4.343623 3.579760 -33.547829 30.842449 50.051163 
0.077450 10.148572 0.077450 -0.009794 -0.016931 -29.902346 11.953125 0.000000 -0.019531 32.154739 9.937421 -19.006184 -8.544920 -0.009766 -0.009767 56.315289 -11.726917 -5.875621 1.992188 -2.001953 0.000341 -24.782623 -10.375926 -38.085598 -107.708313 -0.589415 9.155359 15.213096 -7.941882 64.599693 -2.001953 1.992188 0.000000 54.374542 28.739479 40.091389 73.335327 0.504865 8.805724 29.684927 -37.279224 -13.560882 -144.160736 33.632935 -26.411798 129.661285 4.998706 -3.047731 2.359153 18.840622 3.168213 -22.297977 -40.543018 26.893705 116.014359 -4.353516 3.564553 -33.753227 30.856285 50.185093 
0.077450 10.094893 0.077450 -0.009812 -0.016941 -29.843750 11.943359 0.000000 -0.019531 32.141743 9.946653 -19.006182 -8.544920 -0.009766 -0.009767 56.262035 -11.728339 -5.806718 1.992188 -2.001953 0.000341 -24.758362 -10.414059 -38.024532 -107.655853 -0.584514 9.151601 15.146500 -7.832512 64.327896 -2.001953 1.992188 0.000000 54.363712 28.732178 40.085300 73.381569 0.507856 8.810096 29.684927 -37.279224 -13.560882 -144.406464 33.524113 -26.482475 129.778488 4.984567 -3.054276 2.503011 18.763273 3.186669 -22.106598 -40.652863 26.873257 116.014030 -4.343623 3.579733 -33.947674 30.871195 50.304840 
0.077450 10.041217 0.077450 -0.009829 -0.016951 -29.785158 11.923828 0.000000 -0.019531 32.141743 9.946653 -19.006182 -8.544920 -0.009766 -0.009767 56.218555 -11.729742 -5.735829 1.992188 -2.001953 0.000341 -24.743652 -10.454153 -37.954742 -107.601822 -0.579938 9.150596 15.073644 -7.717703 64.067917 -2.001953 1.992188 0.000000 54.358288 28.726522 40.078915 73.427818 0.501506 8.811572 29.684927 -37.279224 -13.560882 -144.662201 33.417004 -26.542326 129.885773 4.994226 -3.059256 2.629823 18.745724 3.220232 -21.897001 -40.737770 26.866817 116.004723 -4.315358 3.585438 -34.125488 30.884804 50.422466 
0.077450 9.992007 0.077450 -0.009844 -0.016959 -29.736328 11.914063 0.000000 -0.019531 32.127148 9.938000 -18.996582 -8.544920 -0.009766 -0.009767 56.152462 -11.741241 -5.647809 1.992188 -2.001953 0.000341 -24.727724 -10.521776 -37.839996 -107.633919 -0.582752 9.151804 14.952387 -7.515887 63.574848 -2.001953 1.992188 0.000000 54.355980 28.712934 40.077522 73.507217 0.497734 8.813299 29.684927 -37.279224 -13.560882 -144.847198 33.299740 -26.570944 129.954666 4.994293 -3.047622 2.768398 18.676317 3.244183 -21.680182 -40.853527 26.801329 115.975395 -4.315360 3.585449 -34.322868 30.913515 50.542873 
0.077450 9.942810 0.077450 -0.009861 -0.016969 -29.677736 11.894531 0.000000 -0.019531 32.110844 9.928767 -18.994894 -8.544920 -0.009766 -0.009767 56.085369 -11.742995 -5.557800 1.992188 -2.001953 0.000341 -24.715908 -10.586583 -37.739979 -107.666023 -0.585561 9.152873 14.814628 -7.314813 63.090847 -2.001953 1.992188 0.000000 54.345154 28.705629 40.066742 73.577965 0.492666 8.819275 29.684927 -37.279224 -13.560882 -145.053360 33.172993 -26.623108 130.043243 5.006539 -3.029259 2.884952 18.587072 3.274354 -21.455734 -40.970783 26.732260 115.936325 -4.305672 3.590867 -34.482349 30.941769 50.663216 
0.077450 9.907024 0.077450 -0.009878 -0.016979 -29.619143 11.875000 0.000000 -0.019531 32.089603 9.928188 -19.006184 -8.544920 -0.009766 -0.009767 55.990623 -11.745479 -5.427566 1.992188 -2.001953 0.000341 -24.682415 -10.629450 -37.633007 -107.810997 -0.577829 9.152393 14.726964 -7.178413 62.782158 -2.001953 1.992188 0.000000 54.337425 28.686380 40.058968 73.664345 0.499951 8.815897 29.684927 -37.279224 -13.560882 -145.198685 33.075108 -26.646742 130.111938 5.014022 -3.020973 2.988978 18.514959 3.291511 -21.238327 -41.092640 26.641914 115.887413 -4.315358 3.585499 -34.637997 30.960627 50.776558 
0.077450 9.871244 0.077450 -0.009896 -0.016989 -29.560551 11.845703 0.000000 -0.019531 32.081367 9.918376 -19.014103 -8.544920 -0.009766 -0.009767 55.897900 -11.747719 -5.306890 1.992188 -2.001953 0.000341 -24.652887 -10.669540 -37.539013 -107.954613 -0.579623 9.150982 14.644001 -7.049361 62.463837 -2.001953 1.992188 0.000000 54.338238 28.664856 40.062572 73.760696 0.498945 8.807626 29.684927 -37.279224 -13.560882 -145.345596 32.977551 -26.688158 130.171051 5.004303 -3.010964 3.083470 18.422752 3.285694 -21.002510 -41.198963 26.547020 115.829079 -4.325248 3.570402 -34.802315 30.976513 50.882000 
